<svg fill="none" height="24" viewBox="0 0 24 24" width="24" xmlns="http://www.w3.org/2000/svg"><g fill="#292d32"><path d="m16 12.9v4.2c0 3.5-1.4 4.9-4.9 4.9h-4.2c-3.5 0-4.9-1.4-4.9-4.9v-4.2c0-3.5 1.4-4.9 4.9-4.9h4.2c3.5 0 4.9 1.4 4.9 4.9z"/><path d="m17.0998 2h-4.2c-3.08312 0-4.52906 1.09409-4.83029 3.73901-.06302.55334.39525 1.01099.95216 1.01099h2.07813c4.2 0 6.15 1.95 6.15 6.15v2.0781c0 .5569.4576 1.0152 1.011.9522 2.6449-.3013 3.739-1.7472 3.739-4.8303v-4.2c0-3.5-1.4-4.9-4.9-4.9z"/></g></svg>