<svg fill="none" height="24" viewBox="0 0 24 24" width="24" xmlns="http://www.w3.org/2000/svg"><g fill="#363853"><path d="m7.65761 10.2419c.1143-.32254.57048-.32254.68478 0l.31255.8821c.03658.1032.11781.1845.22107.2211l.88206.3125c.32253.1143.32253.5705 0 .6848l-.88206.3125c-.10326.0366-.18449.1179-.22107.2211l-.31255.8821c-.1143.3225-.57048.3225-.68478 0l-.31255-.8821c-.03658-.1032-.11781-.1845-.22107-.2211l-.88206-.3125c-.32257-.1143-.32257-.5705 0-.6848l.88206-.3125c.10326-.0366.18449-.1179.22107-.2211z"/><path d="m12.6576 15.2419c.1143-.3225.5705-.3225.6848 0l.3125.8821c.0366.1032.1179.1845.2211.2211l.8821.3125c.3225.1143.3225.5705 0 .6848l-.8821.3125c-.1032.0366-.1845.1179-.2211.2211l-.3125.8821c-.1143.3225-.5705.3225-.6848 0l-.3125-.8821c-.0366-.1032-.1179-.1845-.2211-.2211l-.8821-.3125c-.3225-.1143-.3225-.5705 0-.6848l.8821-.3125c.1032-.0366.1845-.1179.2211-.2211z"/><path d="m13.9796 5.36772c.1737-.49029.8671-.49029 1.0408 0l.5954 1.68042c.0557.15694.1791.28041.3361.33601l1.6804.59543c.4903.17373.4903.86711 0 1.04084l-1.6804.59543c-.157.05561-.2804.17907-.3361.33601l-.5954 1.68044c-.1737.4903-.8671.4903-1.0408 0l-.5954-1.68044c-.0557-.15694-.1791-.2804-.3361-.33601l-1.6804-.59543c-.4903-.17373-.4903-.86711 0-1.04084l1.6804-.59543c.157-.0556.2804-.17907.3361-.33601z"/></g></svg>