<svg height="24" viewBox="0 0 24 24" width="24" xmlns="http://www.w3.org/2000/svg"><g fill="none"><path d="m0 0h24v24h-24z" transform="matrix(-1 0 0 1 24 0)"/><path d="m12 19c.5523 0 1 .4477 1 1v1c0 .5523-.4477 1-1 1s-1-.4477-1-1v-1c0-.5523.4477-1 1-1zm6.364-2.0502.7071.7071c.3905.3905.3905 1.0236 0 1.4142-.3905.3905-1.0237.3905-1.4142 0l-.7071-.7071c-.3905-.3906-.3905-1.0237 0-1.4142.3905-.3906 1.0237-.3906 1.4142 0zm-12.7280175 0c.3905275-.3906 1.0236975-.3906 1.4142175 0 .36048.3604615.38820923.9277207.08318769 1.3199973l-.08318769.0942027-.70711.7071c-.39052.3905-1.02369.3905-1.41421 0-.36048923-.3604615-.38821917-.9277207-.08318982-1.3199973l.08318982-.0942027zm6.3640175-10.9498c3.3137 0 6 2.68629 6 6 0 3.3137-2.6863 6-6 6-3.31371 0-6-2.6863-6-6 0-3.31371 2.68629-6 6-6zm-8 5c.55228 0 1 .4477 1 1 0 .51285-.38604429.9355092-.88337975.9932725l-.11662025.0067275h-1c-.55228 0-1-.4477-1-1 0-.51285.38604429-.9355092.88337975-.9932725l.11662025-.0067275zm17 0c.5523 0 1 .4477 1 1s-.4477 1-1 1h-1c-.5523 0-1-.4477-1-1s.4477-1 1-1zm-16.07109-6.07112c.36048-.36048.92771503-.38820923 1.3200035-.08318769l.0942065.08318769.70711.70711c.39052.39052.39052 1.02369 0 1.41421-.36048923.36048-.92771645.38820923-1.32000956.08318769l-.09420794-.08318769-.7071025-.70711c-.39053-.39052-.39053-1.02369 0-1.41421zm14.14219.00002c.3905.39052.3905 1.02369 0 1.41421l-.7071.70711c-.3906.39052-1.0237.39052-1.4142 0-.3906-.39053-.3906-1.02369 0-1.4142175l.7071-.7071025c.3905-.39053 1.0236-.39053 1.4142 0zm-7.0711-2.9289c.5523 0 1 .44772 1 1v1c0 .55228-.4477 1-1 1s-1-.44772-1-1v-1c0-.55228.4477-1 1-1z" fill="#09244b"/></g></svg>