<svg fill="none" height="24" viewBox="0 0 24 24" width="24" xmlns="http://www.w3.org/2000/svg"><g fill="#292d32"><path d="m18.4807 12.25c.28 0 .52-.24.5-.52-.27-3.63-3.29-6.48-6.98-6.48s-6.71 2.85-6.98 6.48c-.02.28.22.52.5.52z"/><path d="m22 13h-.08c-.55 0-1-.45-1-1s.45-1 1-1 1.04.45 1.04 1-.41 1-.96 1zm-19.92 0h-.08c-.55 0-1-.45-1-1s.45-1 1-1 1.04.45 1.04 1-.41 1-.96 1zm16.93-7.01c-.26 0-.51-.1-.71-.29-.39-.39-.39-1.02 0-1.41l.13-.13c.39-.39 1.02-.39 1.41 0s.39 1.02 0 1.41l-.13.13c-.19.19-.44.29-.7.29zm-14.02 0c-.26 0-.51-.1-.71-.29l-.13-.14c-.39-.39-.39-1.02 0-1.41s1.02-.39 1.41 0l.13.13c.39.39.39 1.02 0 1.41-.19.2-.45.3-.7.3zm7.01-2.95c-.55 0-1-.41-1-.96v-.08c0-.55.45-1 1-1s1 .45 1 1-.45 1.04-1 1.04z"/><path d="m20 15.75h-16c-.41 0-.75-.34-.75-.75s.34-.75.75-.75h16c.41 0 .75.34.75.75s-.34.75-.75.75z"/><path d="m18 18.75h-12c-.41 0-.75-.34-.75-.75s.34-.75.75-.75h12c.41 0 .75.34.75.75s-.34.75-.75.75z"/><path d="m15 21.75h-6c-.41 0-.75-.34-.75-.75s.34-.75.75-.75h6c.41 0 .75.34.75.75s-.34.75-.75.75z"/></g></svg>